
<svg xmlns="http://www.w3.org/2000/svg" width="24" height="24" fill="#0A66C2" viewBox="0 0 24 24">
  <path d="M20.45 20.45h-3.554v-5.59c0-1.333-.026-3.05-1.86-3.05-1.862 0-2.147 1.453-2.147 2.953v5.687H9.336V9h3.414v1.561h.048c.476-.9 1.637-1.848 3.368-1.848 3.6 0 4.265 2.37 4.265 5.451v6.285zM5.337 7.433c-1.144 0-2.07-.927-2.07-2.07 0-1.144.926-2.07 2.07-2.07s2.07.926 2.07 2.07c0 1.143-.926 2.07-2.07 2.07zm1.777 13.017H3.561V9h3.553v11.45zM22.225 0H1.771C.792 0 0 .774 0 1.729v20.542C0 23.226.792 24 1.771 24h20.451C23.204 24 24 23.226 24 22.271V1.729C24 .774 23.204 0 22.225 0z"/>
</svg>
